<?xml version="1.0" encoding="UTF-8"?>
<svg id="Layer_1" xmlns="http://www.w3.org/2000/svg" viewBox="0 0 2300 1900">
  <defs>
    <style>
      .cls-1 {
        fill: #fd79a8;
      }

      .cls-2 {
        fill: none;
        stroke: #2d3436;
        stroke-miterlimit: 10;
        stroke-width: 4px;
      }

      .cls-3 {
        fill: #0984e3;
      }

      .cls-4 {
        font-size: 50px;
      }

      .cls-4, .cls-5 {
        font-family: SourceCodeProRoman-SemiBold, 'Source Code Pro';
        font-variation-settings: 'wght' 600;
        font-weight: 600;
      }

      .cls-6 {
        fill: #74b9ff;
      }

      .cls-7 {
        fill: #e84393;
      }

      .cls-8 {
        fill: #ffeaa7;
      }

      .cls-9 {
        fill: #55efc4;
      }

      .cls-10 {
        fill: #fab1a0;
      }

      .cls-11 {
        fill: #a29bfe;
      }

      .cls-12 {
        fill: #6c5ce7;
      }

      .cls-13 {
        fill: #00b894;
      }

      .cls-5 {
        font-size: 40px;
      }

      .cls-14 {
        fill: #fdcb6e;
      }

      .cls-15 {
        fill: #bdc3c7;
      }

      .cls-16 {
        fill: #2d3436;
      }
    </style>
  </defs>
  <g>
    <rect class="cls-15" x="10" y="10" width="2280" height="1880" rx="110.26" ry="110.26"/>
    <path class="cls-16" d="M2179.74,20c55.28,0,100.26,44.98,100.26,100.26v1659.48c0,55.28-44.98,100.26-100.26,100.26H120.26c-55.28,0-100.26-44.98-100.26-100.26V120.26c0-55.28,44.98-100.26,100.26-100.26h2059.48M2179.74,0H120.26C53.84,0,0,53.84,0,120.26v1659.48c0,66.42,53.84,120.26,120.26,120.26h2059.48c66.42,0,120.26-53.84,120.26-120.26V120.26c0-66.42-53.84-120.26-120.26-120.26h0Z"/>
  </g>
  <g>
    <rect class="cls-7" x="1702" y="302" width="196" height="96"/>
    <path class="cls-16" d="M1896,304v92h-192v-92h192M1900,300h-200v100h200v-100h0Z"/>
  </g>
  <g>
    <rect class="cls-1" x="1702" y="102" width="196" height="96"/>
    <path class="cls-16" d="M1896,104v92h-192v-92h192M1900,100h-200v100h200v-100h0Z"/>
  </g>
  <g>
    <rect class="cls-7" x="1702" y="202" width="196" height="96"/>
    <path class="cls-16" d="M1896,204v92h-192v-92h192M1900,200h-200v100h200v-100h0Z"/>
  </g>
  <g>
    <rect class="cls-7" x="1702" y="402" width="196" height="96"/>
    <path class="cls-16" d="M1896,404v92h-192v-92h192M1900,400h-200v100h200v-100h0Z"/>
  </g>
  <g>
    <rect class="cls-7" x="1702" y="502" width="196" height="96"/>
    <path class="cls-16" d="M1896,504v92h-192v-92h192M1900,500h-200v100h200v-100h0Z"/>
  </g>
  <text class="cls-5" transform="translate(1788 364.12)"><tspan x="0" y="0">1</tspan></text>
  <text class="cls-4" transform="translate(1755 167.65)"><tspan x="0" y="0">PTE</tspan></text>
  <text class="cls-5" transform="translate(1788 264.12)"><tspan x="0" y="0">0</tspan></text>
  <text class="cls-5" transform="translate(1788 464.12)"><tspan x="0" y="0">2</tspan></text>
  <text class="cls-5" transform="translate(1764 564.12)"><tspan x="0" y="0">...</tspan></text>
  <path class="cls-16" d="M1892,108v484h-184V108h184M1900,100h-200v500h200V100h0Z"/>
  <g>
    <rect class="cls-7" x="1702" y="902" width="196" height="96"/>
    <path class="cls-16" d="M1896,904v92h-192v-92h192M1900,900h-200v100h200v-100h0Z"/>
  </g>
  <g>
    <rect class="cls-1" x="1702" y="702" width="196" height="96"/>
    <path class="cls-16" d="M1896,704v92h-192v-92h192M1900,700h-200v100h200v-100h0Z"/>
  </g>
  <g>
    <rect class="cls-7" x="1702" y="802" width="196" height="96"/>
    <path class="cls-16" d="M1896,804v92h-192v-92h192M1900,800h-200v100h200v-100h0Z"/>
  </g>
  <g>
    <rect class="cls-7" x="1702" y="1002" width="196" height="96"/>
    <path class="cls-16" d="M1896,1004v92h-192v-92h192M1900,1000h-200v100h200v-100h0Z"/>
  </g>
  <g>
    <rect class="cls-7" x="1702" y="1102" width="196" height="96"/>
    <path class="cls-16" d="M1896,1104v92h-192v-92h192M1900,1100h-200v100h200v-100h0Z"/>
  </g>
  <text class="cls-5" transform="translate(1788 964.12)"><tspan x="0" y="0">1</tspan></text>
  <text class="cls-4" transform="translate(1755 767.65)"><tspan x="0" y="0">PTE</tspan></text>
  <text class="cls-5" transform="translate(1788 864.12)"><tspan x="0" y="0">0</tspan></text>
  <text class="cls-5" transform="translate(1788 1064.12)"><tspan x="0" y="0">2</tspan></text>
  <text class="cls-5" transform="translate(1764 1164.12)"><tspan x="0" y="0">...</tspan></text>
  <path class="cls-16" d="M1892,708v484h-184v-484h184M1900,700h-200v500h200v-500h0Z"/>
  <g>
    <rect class="cls-7" x="1702" y="1502" width="196" height="96"/>
    <path class="cls-16" d="M1896,1504v92h-192v-92h192M1900,1500h-200v100h200v-100h0Z"/>
  </g>
  <g>
    <rect class="cls-1" x="1702" y="1302" width="196" height="96"/>
    <path class="cls-16" d="M1896,1304v92h-192v-92h192M1900,1300h-200v100h200v-100h0Z"/>
  </g>
  <g>
    <rect class="cls-7" x="1702" y="1402" width="196" height="96"/>
    <path class="cls-16" d="M1896,1404v92h-192v-92h192M1900,1400h-200v100h200v-100h0Z"/>
  </g>
  <g>
    <rect class="cls-7" x="1702" y="1602" width="196" height="96"/>
    <path class="cls-16" d="M1896,1604v92h-192v-92h192M1900,1600h-200v100h200v-100h0Z"/>
  </g>
  <g>
    <rect class="cls-7" x="1702" y="1702" width="196" height="96"/>
    <path class="cls-16" d="M1896,1704v92h-192v-92h192M1900,1700h-200v100h200v-100h0Z"/>
  </g>
  <text class="cls-5" transform="translate(1788 1564.12)"><tspan x="0" y="0">1</tspan></text>
  <text class="cls-4" transform="translate(1755 1367.65)"><tspan x="0" y="0">PTE</tspan></text>
  <text class="cls-5" transform="translate(1788 1464.12)"><tspan x="0" y="0">0</tspan></text>
  <text class="cls-5" transform="translate(1788 1664.12)"><tspan x="0" y="0">2</tspan></text>
  <text class="cls-5" transform="translate(1764 1764.12)"><tspan x="0" y="0">...</tspan></text>
  <path class="cls-16" d="M1892,1308v484h-184v-484h184M1900,1300h-200v500h200v-500h0Z"/>
  <g>
    <rect class="cls-10" x="2104" y="104" width="92" height="92"/>
    <path class="cls-16" d="M2192,108v84h-84v-84h84M2200,100h-100v100h100v-100h0Z"/>
  </g>
  <g>
    <rect class="cls-10" x="2104" y="304" width="92" height="92"/>
    <path class="cls-16" d="M2192,308v84h-84v-84h84M2200,300h-100v100h100v-100h0Z"/>
  </g>
  <g>
    <rect class="cls-10" x="2104" y="504" width="92" height="92"/>
    <path class="cls-16" d="M2192,508v84h-84v-84h84M2200,500h-100v100h100v-100h0Z"/>
  </g>
  <g>
    <rect class="cls-9" x="502" y="102" width="196" height="96"/>
    <path class="cls-16" d="M696,104v92h-192v-92h192M700,100h-200v100h200v-100h0Z"/>
  </g>
  <g>
    <rect class="cls-13" x="502" y="302" width="196" height="96"/>
    <path class="cls-16" d="M696,304v92h-192v-92h192M700,300h-200v100h200v-100h0Z"/>
  </g>
  <g>
    <rect class="cls-13" x="502" y="202" width="196" height="96"/>
    <path class="cls-16" d="M696,204v92h-192v-92h192M700,200h-200v100h200v-100h0Z"/>
  </g>
  <g>
    <rect class="cls-13" x="502" y="402" width="196" height="96"/>
    <path class="cls-16" d="M696,404v92h-192v-92h192M700,400h-200v100h200v-100h0Z"/>
  </g>
  <g>
    <rect class="cls-13" x="502" y="502" width="196" height="96"/>
    <path class="cls-16" d="M696,504v92h-192v-92h192M700,500h-200v100h200v-100h0Z"/>
  </g>
  <g>
    <rect class="cls-12" x="902" y="302" width="196" height="96"/>
    <path class="cls-16" d="M1096,304v92h-192v-92h192M1100,300h-200v100h200v-100h0Z"/>
  </g>
  <g>
    <rect class="cls-11" x="902" y="102" width="196" height="96"/>
    <path class="cls-16" d="M1096,104v92h-192v-92h192M1100,100h-200v100h200v-100h0Z"/>
  </g>
  <g>
    <rect class="cls-12" x="902" y="202" width="196" height="96"/>
    <path class="cls-16" d="M1096,204v92h-192v-92h192M1100,200h-200v100h200v-100h0Z"/>
  </g>
  <g>
    <rect class="cls-12" x="902" y="402" width="196" height="96"/>
    <path class="cls-16" d="M1096,404v92h-192v-92h192M1100,400h-200v100h200v-100h0Z"/>
  </g>
  <g>
    <rect class="cls-12" x="902" y="502" width="196" height="96"/>
    <path class="cls-16" d="M1096,504v92h-192v-92h192M1100,500h-200v100h200v-100h0Z"/>
  </g>
  <g>
    <rect class="cls-14" x="1302" y="302" width="196" height="96"/>
    <path class="cls-16" d="M1496,304v92h-192v-92h192M1500,300h-200v100h200v-100h0Z"/>
  </g>
  <g>
    <rect class="cls-8" x="1302" y="102" width="196" height="96"/>
    <path class="cls-16" d="M1496,104v92h-192v-92h192M1500,100h-200v100h200v-100h0Z"/>
  </g>
  <g>
    <rect class="cls-14" x="1302" y="202" width="196" height="96"/>
    <path class="cls-16" d="M1496,204v92h-192v-92h192M1500,200h-200v100h200v-100h0Z"/>
  </g>
  <g>
    <rect class="cls-14" x="1302" y="402" width="196" height="96"/>
    <path class="cls-16" d="M1496,404v92h-192v-92h192M1500,400h-200v100h200v-100h0Z"/>
  </g>
  <g>
    <rect class="cls-14" x="1302" y="502" width="196" height="96"/>
    <path class="cls-16" d="M1496,504v92h-192v-92h192M1500,500h-200v100h200v-100h0Z"/>
  </g>
  <text class="cls-4" transform="translate(1355 167.65)"><tspan x="0" y="0">PMD</tspan></text>
  <text class="cls-5" transform="translate(1388 264.12)"><tspan x="0" y="0">0</tspan></text>
  <text class="cls-5" transform="translate(1388 364.12)"><tspan x="0" y="0">1</tspan></text>
  <text class="cls-5" transform="translate(1388 464.12)"><tspan x="0" y="0">2</tspan></text>
  <text class="cls-5" transform="translate(1364 564.12)"><tspan x="0" y="0">...</tspan></text>
  <text class="cls-4" transform="translate(955 167.65)"><tspan x="0" y="0">PUD</tspan></text>
  <text class="cls-5" transform="translate(988 264.12)"><tspan x="0" y="0">0</tspan></text>
  <text class="cls-5" transform="translate(988 364.12)"><tspan x="0" y="0">1</tspan></text>
  <text class="cls-5" transform="translate(988 464.12)"><tspan x="0" y="0">2</tspan></text>
  <text class="cls-5" transform="translate(964 564.12)"><tspan x="0" y="0">...</tspan></text>
  <text class="cls-4" transform="translate(555 167.65)"><tspan x="0" y="0">P4D</tspan></text>
  <text class="cls-5" transform="translate(588 264.12)"><tspan x="0" y="0">0</tspan></text>
  <text class="cls-5" transform="translate(588 364.12)"><tspan x="0" y="0">1</tspan></text>
  <text class="cls-5" transform="translate(588 464.12)"><tspan x="0" y="0">2</tspan></text>
  <text class="cls-5" transform="translate(564 564.12)"><tspan x="0" y="0">...</tspan></text>
  <g>
    <rect class="cls-3" x="102" y="302" width="196" height="96"/>
    <path class="cls-16" d="M296,304v92H104v-92h192M300,300H100v100h200v-100h0Z"/>
  </g>
  <g>
    <rect class="cls-6" x="102" y="102" width="196" height="96"/>
    <path class="cls-16" d="M296,104v92H104v-92h192M300,100H100v100h200v-100h0Z"/>
  </g>
  <g>
    <rect class="cls-3" x="102" y="202" width="196" height="96"/>
    <path class="cls-16" d="M296,204v92H104v-92h192M300,200H100v100h200v-100h0Z"/>
  </g>
  <g>
    <rect class="cls-3" x="102" y="402" width="196" height="96"/>
    <path class="cls-16" d="M296,404v92H104v-92h192M300,400H100v100h200v-100h0Z"/>
  </g>
  <g>
    <rect class="cls-3" x="102" y="502" width="196" height="96"/>
    <path class="cls-16" d="M296,504v92H104v-92h192M300,500H100v100h200v-100h0Z"/>
  </g>
  <path class="cls-16" d="M292,108v484H108V108h184M300,100H100v500h200V100h0Z"/>
  <text class="cls-4" transform="translate(155 167.65)"><tspan x="0" y="0">PGD</tspan></text>
  <text class="cls-5" transform="translate(188 264.12)"><tspan x="0" y="0">0</tspan></text>
  <text class="cls-5" transform="translate(188 364.12)"><tspan x="0" y="0">1</tspan></text>
  <text class="cls-5" transform="translate(188 464.12)"><tspan x="0" y="0">2</tspan></text>
  <text class="cls-5" transform="translate(164 564.12)"><tspan x="0" y="0">...</tspan></text>
  <path class="cls-16" d="M692,108v484h-184V108h184M700,100h-200v500h200V100h0Z"/>
  <g>
    <rect class="cls-9" x="502" y="702" width="196" height="96"/>
    <path class="cls-16" d="M696,704v92h-192v-92h192M700,700h-200v100h200v-100h0Z"/>
  </g>
  <g>
    <rect class="cls-13" x="502" y="902" width="196" height="96"/>
    <path class="cls-16" d="M696,904v92h-192v-92h192M700,900h-200v100h200v-100h0Z"/>
  </g>
  <g>
    <rect class="cls-13" x="502" y="802" width="196" height="96"/>
    <path class="cls-16" d="M696,804v92h-192v-92h192M700,800h-200v100h200v-100h0Z"/>
  </g>
  <g>
    <rect class="cls-13" x="502" y="1002" width="196" height="96"/>
    <path class="cls-16" d="M696,1004v92h-192v-92h192M700,1000h-200v100h200v-100h0Z"/>
  </g>
  <g>
    <rect class="cls-13" x="502" y="1102" width="196" height="96"/>
    <path class="cls-16" d="M696,1104v92h-192v-92h192M700,1100h-200v100h200v-100h0Z"/>
  </g>
  <text class="cls-4" transform="translate(555 767.65)"><tspan x="0" y="0">P4D</tspan></text>
  <text class="cls-5" transform="translate(588 864.12)"><tspan x="0" y="0">0</tspan></text>
  <text class="cls-5" transform="translate(588 964.12)"><tspan x="0" y="0">1</tspan></text>
  <text class="cls-5" transform="translate(588 1064.12)"><tspan x="0" y="0">2</tspan></text>
  <text class="cls-5" transform="translate(564 1164.12)"><tspan x="0" y="0">...</tspan></text>
  <path class="cls-16" d="M692,708v484h-184v-484h184M700,700h-200v500h200v-500h0Z"/>
  <g>
    <rect class="cls-9" x="502" y="1302" width="196" height="96"/>
    <path class="cls-16" d="M696,1304v92h-192v-92h192M700,1300h-200v100h200v-100h0Z"/>
  </g>
  <g>
    <rect class="cls-13" x="502" y="1502" width="196" height="96"/>
    <path class="cls-16" d="M696,1504v92h-192v-92h192M700,1500h-200v100h200v-100h0Z"/>
  </g>
  <g>
    <rect class="cls-13" x="502" y="1402" width="196" height="96"/>
    <path class="cls-16" d="M696,1404v92h-192v-92h192M700,1400h-200v100h200v-100h0Z"/>
  </g>
  <g>
    <rect class="cls-13" x="502" y="1602" width="196" height="96"/>
    <path class="cls-16" d="M696,1604v92h-192v-92h192M700,1600h-200v100h200v-100h0Z"/>
  </g>
  <g>
    <rect class="cls-13" x="502" y="1702" width="196" height="96"/>
    <path class="cls-16" d="M696,1704v92h-192v-92h192M700,1700h-200v100h200v-100h0Z"/>
  </g>
  <text class="cls-4" transform="translate(555 1367.65)"><tspan x="0" y="0">P4D</tspan></text>
  <text class="cls-5" transform="translate(588 1464.12)"><tspan x="0" y="0">0</tspan></text>
  <text class="cls-5" transform="translate(588 1564.12)"><tspan x="0" y="0">1</tspan></text>
  <text class="cls-5" transform="translate(588 1664.12)"><tspan x="0" y="0">2</tspan></text>
  <text class="cls-5" transform="translate(564 1764.12)"><tspan x="0" y="0">...</tspan></text>
  <path class="cls-16" d="M692,1308v484h-184v-484h184M700,1300h-200v500h200v-500h0Z"/>
  <path class="cls-16" d="M1092,108v484h-184V108h184M1100,100h-200v500h200V100h0Z"/>
  <g>
    <rect class="cls-12" x="902" y="902" width="196" height="96"/>
    <path class="cls-16" d="M1096,904v92h-192v-92h192M1100,900h-200v100h200v-100h0Z"/>
  </g>
  <g>
    <rect class="cls-11" x="902" y="702" width="196" height="96"/>
    <path class="cls-16" d="M1096,704v92h-192v-92h192M1100,700h-200v100h200v-100h0Z"/>
  </g>
  <g>
    <rect class="cls-12" x="902" y="802" width="196" height="96"/>
    <path class="cls-16" d="M1096,804v92h-192v-92h192M1100,800h-200v100h200v-100h0Z"/>
  </g>
  <g>
    <rect class="cls-12" x="902" y="1002" width="196" height="96"/>
    <path class="cls-16" d="M1096,1004v92h-192v-92h192M1100,1000h-200v100h200v-100h0Z"/>
  </g>
  <g>
    <rect class="cls-12" x="902" y="1102" width="196" height="96"/>
    <path class="cls-16" d="M1096,1104v92h-192v-92h192M1100,1100h-200v100h200v-100h0Z"/>
  </g>
  <text class="cls-4" transform="translate(955 767.65)"><tspan x="0" y="0">PUD</tspan></text>
  <text class="cls-5" transform="translate(988 864.12)"><tspan x="0" y="0">0</tspan></text>
  <text class="cls-5" transform="translate(988 964.12)"><tspan x="0" y="0">1</tspan></text>
  <text class="cls-5" transform="translate(988 1064.12)"><tspan x="0" y="0">2</tspan></text>
  <text class="cls-5" transform="translate(964 1164.12)"><tspan x="0" y="0">...</tspan></text>
  <path class="cls-16" d="M1092,708v484h-184v-484h184M1100,700h-200v500h200v-500h0Z"/>
  <g>
    <rect class="cls-12" x="902" y="1502" width="196" height="96"/>
    <path class="cls-16" d="M1096,1504v92h-192v-92h192M1100,1500h-200v100h200v-100h0Z"/>
  </g>
  <g>
    <rect class="cls-11" x="902" y="1302" width="196" height="96"/>
    <path class="cls-16" d="M1096,1304v92h-192v-92h192M1100,1300h-200v100h200v-100h0Z"/>
  </g>
  <g>
    <rect class="cls-12" x="902" y="1402" width="196" height="96"/>
    <path class="cls-16" d="M1096,1404v92h-192v-92h192M1100,1400h-200v100h200v-100h0Z"/>
  </g>
  <g>
    <rect class="cls-12" x="902" y="1602" width="196" height="96"/>
    <path class="cls-16" d="M1096,1604v92h-192v-92h192M1100,1600h-200v100h200v-100h0Z"/>
  </g>
  <g>
    <rect class="cls-12" x="902" y="1702" width="196" height="96"/>
    <path class="cls-16" d="M1096,1704v92h-192v-92h192M1100,1700h-200v100h200v-100h0Z"/>
  </g>
  <text class="cls-4" transform="translate(955 1367.65)"><tspan x="0" y="0">PUD</tspan></text>
  <text class="cls-5" transform="translate(988 1464.12)"><tspan x="0" y="0">0</tspan></text>
  <text class="cls-5" transform="translate(988 1564.12)"><tspan x="0" y="0">1</tspan></text>
  <text class="cls-5" transform="translate(988 1664.12)"><tspan x="0" y="0">2</tspan></text>
  <text class="cls-5" transform="translate(964 1764.12)"><tspan x="0" y="0">...</tspan></text>
  <path class="cls-16" d="M1092,1308v484h-184v-484h184M1100,1300h-200v500h200v-500h0Z"/>
  <path class="cls-16" d="M1492,108v484h-184V108h184M1500,100h-200v500h200V100h0Z"/>
  <g>
    <rect class="cls-14" x="1302" y="902" width="196" height="96"/>
    <path class="cls-16" d="M1496,904v92h-192v-92h192M1500,900h-200v100h200v-100h0Z"/>
  </g>
  <g>
    <rect class="cls-8" x="1302" y="702" width="196" height="96"/>
    <path class="cls-16" d="M1496,704v92h-192v-92h192M1500,700h-200v100h200v-100h0Z"/>
  </g>
  <g>
    <rect class="cls-14" x="1302" y="802" width="196" height="96"/>
    <path class="cls-16" d="M1496,804v92h-192v-92h192M1500,800h-200v100h200v-100h0Z"/>
  </g>
  <g>
    <rect class="cls-14" x="1302" y="1002" width="196" height="96"/>
    <path class="cls-16" d="M1496,1004v92h-192v-92h192M1500,1000h-200v100h200v-100h0Z"/>
  </g>
  <g>
    <rect class="cls-14" x="1302" y="1102" width="196" height="96"/>
    <path class="cls-16" d="M1496,1104v92h-192v-92h192M1500,1100h-200v100h200v-100h0Z"/>
  </g>
  <text class="cls-4" transform="translate(1355 767.65)"><tspan x="0" y="0">PMD</tspan></text>
  <text class="cls-5" transform="translate(1388 864.12)"><tspan x="0" y="0">0</tspan></text>
  <text class="cls-5" transform="translate(1388 964.12)"><tspan x="0" y="0">1</tspan></text>
  <text class="cls-5" transform="translate(1388 1064.12)"><tspan x="0" y="0">2</tspan></text>
  <text class="cls-5" transform="translate(1364 1164.12)"><tspan x="0" y="0">...</tspan></text>
  <path class="cls-16" d="M1492,708v484h-184v-484h184M1500,700h-200v500h200v-500h0Z"/>
  <g>
    <rect class="cls-14" x="1302" y="1502" width="196" height="96"/>
    <path class="cls-16" d="M1496,1504v92h-192v-92h192M1500,1500h-200v100h200v-100h0Z"/>
  </g>
  <g>
    <rect class="cls-8" x="1302" y="1302" width="196" height="96"/>
    <path class="cls-16" d="M1496,1304v92h-192v-92h192M1500,1300h-200v100h200v-100h0Z"/>
  </g>
  <g>
    <rect class="cls-14" x="1302" y="1402" width="196" height="96"/>
    <path class="cls-16" d="M1496,1404v92h-192v-92h192M1500,1400h-200v100h200v-100h0Z"/>
  </g>
  <g>
    <rect class="cls-14" x="1302" y="1602" width="196" height="96"/>
    <path class="cls-16" d="M1496,1604v92h-192v-92h192M1500,1600h-200v100h200v-100h0Z"/>
  </g>
  <g>
    <rect class="cls-14" x="1302" y="1702" width="196" height="96"/>
    <path class="cls-16" d="M1496,1704v92h-192v-92h192M1500,1700h-200v100h200v-100h0Z"/>
  </g>
  <text class="cls-4" transform="translate(1355 1367.65)"><tspan x="0" y="0">PMD</tspan></text>
  <text class="cls-5" transform="translate(1388 1464.12)"><tspan x="0" y="0">0</tspan></text>
  <text class="cls-5" transform="translate(1388 1564.12)"><tspan x="0" y="0">1</tspan></text>
  <text class="cls-5" transform="translate(1388 1664.12)"><tspan x="0" y="0">2</tspan></text>
  <text class="cls-5" transform="translate(1364 1764.12)"><tspan x="0" y="0">...</tspan></text>
  <path class="cls-16" d="M1492,1308v484h-184v-484h184M1500,1300h-200v500h200v-500h0Z"/>
  <g>
    <path class="cls-2" d="M272.3,247.78c30.12,8.97,63-.27,90.43-15.61,27.43-15.34,51.14-36.48,77.28-53.92,20.86-13.91,49.55-25.97,76.23-29.41"/>
    <polygon class="cls-16" points="536 148 508.8 160.88 514.78 149.16 507.56 138.15 536 148"/>
  </g>
  <g>
    <path class="cls-2" d="M264.22,354.88c39.82-8.6,87.35-15.12,116.02,13.83,17.11,17.28,22.3,42.77,26.04,66.8,8.56,55.05,13.63,110.64,15.17,166.33,1.13,40.82.68,83.24,18.01,120.21,14.45,30.83,45.75,56.43,78.47,57.42"/>
    <polygon class="cls-16" points="537.54 776.99 511.06 791.29 516.41 779.27 508.62 768.66 537.54 776.99"/>
  </g>
  <g>
    <path class="cls-2" d="M260.54,455.85c22.74-13.65,53.79-7.18,73.54,10.52,19.75,17.69,29.53,44.3,32.68,70.63,3.14,26.33.38,52.95-1.03,79.43-11.46,215.66,67.46,428.47,56.55,644.16-1.65,32.54-3.22,70.48,21.65,91.53,21.95,18.58,53.05,14.5,81.68,5.66"/>
    <polygon class="cls-16" points="544.3 1351.35 521.51 1371 524.16 1358.1 514.27 1349.42 544.3 1351.35"/>
  </g>
  <g>
    <path class="cls-2" d="M671.28,254.81c23.82,12.18,53.42,2.92,75.22-12.58,21.8-15.51,39.07-36.7,60.91-52.15,28.92-20.45,75.75-34.34,114.03-31.96"/>
    <polygon class="cls-16" points="941 161 911.87 168.55 919.94 158.16 914.92 145.99 941 161"/>
  </g>
  <g>
    <path class="cls-2" d="M660.86,347.38c35.32-14.61,78.03.78,103.31,29.44s35.58,67.81,38,105.95c2.42,38.14-2.2,76.35-2.78,114.56-.66,43.96,4.64,89.76,28.06,126.98,19.85,31.54,55.44,55.11,91.88,55.37"/>
    <polygon class="cls-16" points="938.97 777.46 912.34 791.49 917.82 779.52 910.14 768.83 938.97 777.46"/>
  </g>
  <g>
    <path class="cls-2" d="M653.97,455.43c22.64-15.08,55.27-2.14,70.8,20.19,15.53,22.33,18.49,50.78,21.05,77.86,21.79,230.88,48.63,461.29,80.5,691,3.64,26.27,8.2,54.36,26.46,73.6,15.2,16.01,43.41,25.83,68.47,28.92"/>
    <polygon class="cls-16" points="941 1348 912.51 1357.69 919.79 1346.72 913.88 1334.97 941 1348"/>
  </g>
  <g>
    <path class="cls-2" d="M1066.15,242.52c32.62,6.07,67.74,11.87,97.85-2.07,26.64-12.32,44.34-37.84,66.93-56.58,23.86-19.78,64.8-32.41,99.31-35.32"/>
    <polygon class="cls-16" points="1350 148 1322.56 160.35 1328.77 148.74 1321.76 137.6 1350 148"/>
  </g>
  <g>
    <path class="cls-2" d="M1073.42,364.02c18.47-7.46,37.35-15.01,57.23-16.27,19.88-1.26,41.32,4.84,53.72,20.43,9.88,12.41,12.76,28.83,15.32,44.49,7.47,45.81,14.95,91.62,22.42,137.42,7.11,43.56,14.34,87.58,31.37,128.3,14.47,34.6,36.85,67.04,67.38,88.33"/>
    <polygon class="cls-16" points="1337.8 776.91 1308.11 772.01 1319.71 765.78 1320.04 752.62 1337.8 776.91"/>
  </g>
  <g>
    <path class="cls-2" d="M1058.72,450.58c54.86,7.19,98.43,53,119.03,104.35,20.6,51.35,22.44,108.01,24.01,163.32,4.91,172.79,9.83,345.58,14.74,518.37.66,23.37,1.77,48.17,14.93,67.49,17.75,26.08,55.9,46.17,89.98,53.26"/>
    <polygon class="cls-16" points="1341 1360 1311.81 1367.32 1319.97 1356.99 1315.04 1344.79 1341 1360"/>
  </g>
  <g>
    <path class="cls-2" d="M1463.18,254.64c50.51,4.18,97.12-24.63,140.09-51.5,37.3-23.33,78.63-46.81,121.62-47.33"/>
    <polygon class="cls-16" points="1744.6 157.25 1716.12 166.97 1723.39 156 1717.47 144.25 1744.6 157.25"/>
  </g>
  <g>
    <path class="cls-2" d="M1458.81,355.12c23.69-16.03,58.13-4.33,75.8,18.16,17.67,22.49,22.48,52.29,25.08,80.78,4.04,44.16,4.26,88.76,11.92,132.44,7.66,43.68,23.57,87.35,54.36,119.26,26.17,27.11,64.61,44.11,101.55,40.49"/>
    <polygon class="cls-16" points="1746.91 742.34 1721.6 758.63 1726.02 746.23 1717.44 736.25 1746.91 742.34"/>
  </g>
  <g>
    <path class="cls-2" d="M1466.73,450.16c23.02-8.3,49.04,8.09,60.08,29.93,11.04,21.84,10.94,47.41,10.68,71.88-2.44,223.92,1.06,447.9,10.5,671.63.9,21.32,1.99,43.25,10.81,62.68,14.11,31.08,46.3,50.92,79.54,58.69,26.84,6.28,54.61,5.84,82.23,4.09"/>
    <polygon class="cls-16" points="1740.29 1347.67 1713.28 1360.93 1719.09 1349.12 1711.72 1338.22 1740.29 1347.67"/>
  </g>
  <g>
    <path class="cls-2" d="M1860.16,250.36c26.34,9.71,56.25,2.03,80.77-11.63,24.53-13.66,45.45-32.88,68.74-48.56,34.18-23,73.58-38.18,114.34-44.18"/>
    <polygon class="cls-16" points="2143.66 143.81 2117.31 158.35 2122.55 146.27 2114.67 135.74 2143.66 143.81"/>
  </g>
  <g>
    <path class="cls-2" d="M1867.37,359.73c84.08-22.51,173.66-24.08,258.5-4.7"/>
    <polygon class="cls-16" points="2145.06 359.8 2115.3 364.28 2124.41 354.78 2120.68 342.16 2145.06 359.8"/>
  </g>
  <g>
    <path class="cls-2" d="M1868.86,456.24c30.81-4.11,64.96-7.47,90.36,10.46,18.07,12.76,27.94,33.86,41.39,51.42,26.81,35,70.49,56.15,114.47,56.59"/>
    <polygon class="cls-16" points="2134.82 573.5 2107.56 586.26 2113.59 574.56 2106.42 563.53 2134.82 573.5"/>
  </g>
</svg>