<?xml version="1.0" encoding="UTF-8"?>
<svg id="Layer_1" xmlns="http://www.w3.org/2000/svg" viewBox="0 0 2100 1800">
  <defs>
    <style>
      .cls-1 {
        fill: none;
        stroke: #2d3436;
        stroke-miterlimit: 10;
        stroke-width: 4px;
      }

      .cls-2 {
        fill: #0984e3;
      }

      .cls-3 {
        fill: #74b9ff;
      }

      .cls-4 {
        font-size: 24px;
      }

      .cls-4, .cls-5, .cls-6, .cls-7 {
        font-family: SourceCodeProRoman-SemiBold, 'Source Code Pro';
        font-variation-settings: 'wght' 600;
        font-weight: 600;
      }

      .cls-8 {
        fill: #ffeaa7;
      }

      .cls-9 {
        fill: #55efc4;
      }

      .cls-10 {
        fill: #fab1a0;
      }

      .cls-11 {
        fill: #a29bfe;
      }

      .cls-5 {
        font-size: 35px;
      }

      .cls-12 {
        fill: #00b894;
      }

      .cls-6 {
        font-size: 30px;
      }

      .cls-7 {
        font-size: 20px;
      }

      .cls-13 {
        fill: #bdc3c7;
      }

      .cls-14 {
        fill: #2d3436;
      }
    </style>
  </defs>
  <g>
    <rect class="cls-13" x="10" y="10" width="2080" height="1780" rx="130.47" ry="130.47"/>
    <path class="cls-14" d="M1959.53,20c32.18,0,62.43,12.53,85.19,35.29s35.29,53.01,35.29,85.19v1519.05c0,32.18-12.53,62.43-35.29,85.19-22.75,22.75-53.01,35.29-85.19,35.29H140.47c-32.18,0-62.43-12.53-85.19-35.29-22.75-22.75-35.29-53.01-35.29-85.19V140.47c0-32.18,12.53-62.43,35.29-85.19s53.01-35.29,85.19-35.29h1819.05M1959.53,0H140.47C62.89,0,0,62.89,0,140.47v1519.05c0,77.58,62.89,140.47,140.47,140.47h1819.05c77.58,0,140.47-62.89,140.47-140.47V140.47c0-77.58-62.89-140.47-140.47-140.47h0Z"/>
  </g>
  <text class="cls-6" transform="translate(306 460.59)"><tspan x="0" y="0">contig_page_data</tspan></text>
  <g>
    <rect class="cls-12" x="800.5" y="800.5" width="299" height="99"/>
    <path class="cls-14" d="M1099,801v98h-298v-98h298M1100,800h-300v100h300v-100h0Z"/>
  </g>
  <text class="cls-4" transform="translate(928.4 858.47)"><tspan x="0" y="0">...</tspan></text>
  <g>
    <rect class="cls-12" x="800.5" y="600.5" width="299" height="99"/>
    <path class="cls-14" d="M1099,601v98h-298v-98h298M1100,600h-300v100h300v-100h0Z"/>
  </g>
  <text class="cls-4" transform="translate(878 658.47)"><tspan x="0" y="0">zone_pgdat</tspan></text>
  <g>
    <rect class="cls-12" x="800.5" y="700.5" width="299" height="99"/>
    <path class="cls-14" d="M1099,701v98h-298v-98h298M1100,700h-300v100h300v-100h0Z"/>
  </g>
  <text class="cls-4" transform="translate(870.8 758.47)"><tspan x="0" y="0">free_area[]</tspan></text>
  <g>
    <rect class="cls-9" x="800.5" y="500.5" width="299" height="99"/>
    <path class="cls-14" d="M1099,501v98h-298v-98h298M1100,500h-300v100h300v-100h0Z"/>
  </g>
  <text class="cls-5" transform="translate(887 562.36)"><tspan x="0" y="0">zone_t</tspan></text>
  <g>
    <rect class="cls-2" x="302" y="602" width="296" height="96"/>
    <path class="cls-14" d="M596,604v92h-292v-92h292M600,600h-300v100h300v-100h0Z"/>
  </g>
  <text class="cls-4" transform="translate(363.6 658.47)"><tspan x="0" y="0">node_zones[]</tspan></text>
  <g>
    <rect class="cls-2" x="302" y="702" width="296" height="96"/>
    <path class="cls-14" d="M596,704v92h-292v-92h292M600,700h-300v100h300v-100h0Z"/>
  </g>
  <text class="cls-4" transform="translate(334.8 758.47)"><tspan x="0" y="0">node_zonelists[]</tspan></text>
  <g>
    <rect class="cls-2" x="302" y="802" width="296" height="96"/>
    <path class="cls-14" d="M596,804v92h-292v-92h292M600,800h-300v100h300v-100h0Z"/>
  </g>
  <text class="cls-4" transform="translate(392.4 858.47)"><tspan x="0" y="0">nr_zones</tspan></text>
  <g>
    <rect class="cls-2" x="302" y="902" width="296" height="96"/>
    <path class="cls-14" d="M596,904v92h-292v-92h292M600,900h-300v100h300v-100h0Z"/>
  </g>
  <text class="cls-4" transform="translate(349.2 958.47)"><tspan x="0" y="0">node_start_pfn</tspan></text>
  <g>
    <rect class="cls-2" x="302" y="1002" width="296" height="96"/>
    <path class="cls-14" d="M596,1004v92h-292v-92h292M600,1000h-300v100h300v-100h0Z"/>
  </g>
  <text class="cls-4" transform="translate(320.4 1058.47)"><tspan x="0" y="0">node_spanned_pages</tspan></text>
  <g>
    <rect class="cls-2" x="302" y="1102" width="296" height="96"/>
    <path class="cls-14" d="M596,1104v92h-292v-92h292M600,1100h-300v100h300v-100h0Z"/>
  </g>
  <text class="cls-4" transform="translate(428.4 1158.47)"><tspan x="0" y="0">...</tspan></text>
  <g>
    <rect class="cls-3" x="302" y="502" width="296" height="96"/>
    <path class="cls-14" d="M596,504v92h-292v-92h292M600,500h-300v100h300v-100h0Z"/>
  </g>
  <text class="cls-5" transform="translate(355.5 562.36)"><tspan x="0" y="0">pg_data_t</tspan></text>
  <path class="cls-14" d="M592,508v684h-284V508h284M600,500h-300v700h300V500h0Z"/>
  <path class="cls-14" d="M1096,504v392h-292v-392h292M1100,500h-300v400h300v-400h0Z"/>
  <g>
    <rect class="cls-12" x="800.5" y="1200.5" width="299" height="99"/>
    <path class="cls-14" d="M1099,1201v98h-298v-98h298M1100,1200h-300v100h300v-100h0Z"/>
  </g>
  <text class="cls-4" transform="translate(928.4 1258.47)"><tspan x="0" y="0">...</tspan></text>
  <g>
    <rect class="cls-12" x="800.5" y="1000.5" width="299" height="99"/>
    <path class="cls-14" d="M1099,1001v98h-298v-98h298M1100,1000h-300v100h300v-100h0Z"/>
  </g>
  <text class="cls-4" transform="translate(878 1058.47)"><tspan x="0" y="0">zone_pgdat</tspan></text>
  <g>
    <rect class="cls-12" x="800.5" y="1100.5" width="299" height="99"/>
    <path class="cls-14" d="M1099,1101v98h-298v-98h298M1100,1100h-300v100h300v-100h0Z"/>
  </g>
  <text class="cls-4" transform="translate(870.8 1158.47)"><tspan x="0" y="0">free_area[]</tspan></text>
  <g>
    <rect class="cls-9" x="800.5" y="900.5" width="299" height="99"/>
    <path class="cls-14" d="M1099,901v98h-298v-98h298M1100,900h-300v100h300v-100h0Z"/>
  </g>
  <text class="cls-5" transform="translate(887 962.35)"><tspan x="0" y="0">zone_t</tspan></text>
  <path class="cls-14" d="M1096,904v392h-292v-392h292M1100,900h-300v400h300v-400h0Z"/>
  <g>
    <rect class="cls-12" x="800.5" y="1600.5" width="299" height="99"/>
    <path class="cls-14" d="M1099,1601v98h-298v-98h298M1100,1600h-300v100h300v-100h0Z"/>
  </g>
  <text class="cls-4" transform="translate(928.4 1658.47)"><tspan x="0" y="0">...</tspan></text>
  <g>
    <rect class="cls-12" x="800.5" y="1400.5" width="299" height="99"/>
    <path class="cls-14" d="M1099,1401v98h-298v-98h298M1100,1400h-300v100h300v-100h0Z"/>
  </g>
  <text class="cls-4" transform="translate(878 1458.47)"><tspan x="0" y="0">zone_pgdat</tspan></text>
  <g>
    <rect class="cls-12" x="800.5" y="1500.5" width="299" height="99"/>
    <path class="cls-14" d="M1099,1501v98h-298v-98h298M1100,1500h-300v100h300v-100h0Z"/>
  </g>
  <text class="cls-4" transform="translate(870.8 1558.47)"><tspan x="0" y="0">free_area[]</tspan></text>
  <g>
    <rect class="cls-9" x="800.5" y="1300.5" width="299" height="99"/>
    <path class="cls-14" d="M1099,1301v98h-298v-98h298M1100,1300h-300v100h300v-100h0Z"/>
  </g>
  <text class="cls-5" transform="translate(887 1362.35)"><tspan x="0" y="0">zone_t</tspan></text>
  <path class="cls-14" d="M1096,1304v392h-292v-392h292M1100,1300h-300v400h300v-400h0Z"/>
  <g>
    <path class="cls-1" d="M572.53,646.76c20.05,18.58,47.53,14.17,69.51.24s40.56-36.06,61.31-53.17c33.35-27.5,77.57-39.93,117.78-38.35"/>
    <polygon class="cls-14" points="838 557 813.4 564.77 819.85 555.51 815 545.32 838 557"/>
  </g>
  <g>
    <path class="cls-1" d="M837.57,654.35c-46.07,8.82-90.13-24.32-131.38-53.64-36.33-25.83-81.79-51.59-122.13-43.11"/>
    <polygon class="cls-14" points="568 563 587.77 546.44 585.35 557.46 593.71 565.02 568 563"/>
  </g>
  <g>
    <rect class="cls-10" x="302" y="202" width="46" height="46"/>
    <path class="cls-14" d="M346,204v42h-42v-42h42M350,200h-50v50h50v-50h0Z"/>
  </g>
  <g>
    <rect class="cls-10" x="352" y="202" width="46" height="46"/>
    <path class="cls-14" d="M396,204v42h-42v-42h42M400,200h-50v50h50v-50h0Z"/>
  </g>
  <g>
    <rect class="cls-10" x="402" y="202" width="46" height="46"/>
    <path class="cls-14" d="M446,204v42h-42v-42h42M450,200h-50v50h50v-50h0Z"/>
  </g>
  <g>
    <rect class="cls-9" x="452" y="202" width="46" height="46"/>
    <path class="cls-14" d="M496,204v42h-42v-42h42M500,200h-50v50h50v-50h0Z"/>
  </g>
  <g>
    <rect class="cls-10" x="502" y="202" width="46" height="46"/>
    <path class="cls-14" d="M546,204v42h-42v-42h42M550,200h-50v50h50v-50h0Z"/>
  </g>
  <g>
    <rect class="cls-9" x="552" y="202" width="46" height="46"/>
    <path class="cls-14" d="M596,204v42h-42v-42h42M600,200h-50v50h50v-50h0Z"/>
  </g>
  <g>
    <rect class="cls-9" x="602" y="202" width="46" height="46"/>
    <path class="cls-14" d="M646,204v42h-42v-42h42M650,200h-50v50h50v-50h0Z"/>
  </g>
  <g>
    <rect class="cls-10" x="652" y="202" width="46" height="46"/>
    <path class="cls-14" d="M696,204v42h-42v-42h42M700,200h-50v50h50v-50h0Z"/>
  </g>
  <g>
    <rect class="cls-9" x="702" y="202" width="46" height="46"/>
    <path class="cls-14" d="M746,204v42h-42v-42h42M750,200h-50v50h50v-50h0Z"/>
  </g>
  <g>
    <rect class="cls-9" x="752" y="202" width="46" height="46"/>
    <path class="cls-14" d="M796,204v42h-42v-42h42M800,200h-50v50h50v-50h0Z"/>
  </g>
  <g>
    <rect class="cls-10" x="802" y="202" width="46" height="46"/>
    <path class="cls-14" d="M846,204v42h-42v-42h42M850,200h-50v50h50v-50h0Z"/>
  </g>
  <g>
    <rect class="cls-9" x="852" y="202" width="46" height="46"/>
    <path class="cls-14" d="M896,204v42h-42v-42h42M900,200h-50v50h50v-50h0Z"/>
  </g>
  <g>
    <rect class="cls-9" x="902" y="202" width="46" height="46"/>
    <path class="cls-14" d="M946,204v42h-42v-42h42M950,200h-50v50h50v-50h0Z"/>
  </g>
  <g>
    <rect class="cls-9" x="952" y="202" width="46" height="46"/>
    <path class="cls-14" d="M996,204v42h-42v-42h42M1000,200h-50v50h50v-50h0Z"/>
  </g>
  <g>
    <rect class="cls-9" x="1002" y="202" width="46" height="46"/>
    <path class="cls-14" d="M1046,204v42h-42v-42h42M1050,200h-50v50h50v-50h0Z"/>
  </g>
  <g>
    <rect class="cls-9" x="1052" y="202" width="46" height="46"/>
    <path class="cls-14" d="M1096,204v42h-42v-42h42M1100,200h-50v50h50v-50h0Z"/>
  </g>
  <g>
    <rect class="cls-10" x="1102" y="202" width="46" height="46"/>
    <path class="cls-14" d="M1146,204v42h-42v-42h42M1150,200h-50v50h50v-50h0Z"/>
  </g>
  <g>
    <rect class="cls-10" x="1152" y="202" width="46" height="46"/>
    <path class="cls-14" d="M1196,204v42h-42v-42h42M1200,200h-50v50h50v-50h0Z"/>
  </g>
  <g>
    <rect class="cls-10" x="1202" y="202" width="46" height="46"/>
    <path class="cls-14" d="M1246,204v42h-42v-42h42M1250,200h-50v50h50v-50h0Z"/>
  </g>
  <g>
    <rect class="cls-10" x="1252" y="202" width="46" height="46"/>
    <path class="cls-14" d="M1296,204v42h-42v-42h42M1300,200h-50v50h50v-50h0Z"/>
  </g>
  <g>
    <rect class="cls-9" x="1302" y="202" width="46" height="46"/>
    <path class="cls-14" d="M1346,204v42h-42v-42h42M1350,200h-50v50h50v-50h0Z"/>
  </g>
  <g>
    <rect class="cls-9" x="1352" y="202" width="46" height="46"/>
    <path class="cls-14" d="M1396,204v42h-42v-42h42M1400,200h-50v50h50v-50h0Z"/>
  </g>
  <g>
    <rect class="cls-9" x="1402" y="202" width="46" height="46"/>
    <path class="cls-14" d="M1446,204v42h-42v-42h42M1450,200h-50v50h50v-50h0Z"/>
  </g>
  <g>
    <rect class="cls-9" x="1452" y="202" width="46" height="46"/>
    <path class="cls-14" d="M1496,204v42h-42v-42h42M1500,200h-50v50h50v-50h0Z"/>
  </g>
  <g>
    <rect class="cls-9" x="1502" y="202" width="46" height="46"/>
    <path class="cls-14" d="M1546,204v42h-42v-42h42M1550,200h-50v50h50v-50h0Z"/>
  </g>
  <g>
    <rect class="cls-9" x="1552" y="202" width="46" height="46"/>
    <path class="cls-14" d="M1596,204v42h-42v-42h42M1600,200h-50v50h50v-50h0Z"/>
  </g>
  <g>
    <rect class="cls-9" x="1602" y="202" width="46" height="46"/>
    <path class="cls-14" d="M1646,204v42h-42v-42h42M1650,200h-50v50h50v-50h0Z"/>
  </g>
  <g>
    <rect class="cls-9" x="1652" y="202" width="46" height="46"/>
    <path class="cls-14" d="M1696,204v42h-42v-42h42M1700,200h-50v50h50v-50h0Z"/>
  </g>
  <g>
    <rect class="cls-9" x="1702" y="202" width="46" height="46"/>
    <path class="cls-14" d="M1746,204v42h-42v-42h42M1750,200h-50v50h50v-50h0Z"/>
  </g>
  <g>
    <rect class="cls-9" x="1752" y="202" width="46" height="46"/>
    <path class="cls-14" d="M1796,204v42h-42v-42h42M1800,200h-50v50h50v-50h0Z"/>
  </g>
  <g>
    <rect class="cls-9" x="1802" y="202" width="46" height="46"/>
    <path class="cls-14" d="M1846,204v42h-42v-42h42M1850,200h-50v50h50v-50h0Z"/>
  </g>
  <g>
    <rect class="cls-9" x="1852" y="202" width="46" height="46"/>
    <path class="cls-14" d="M1896,204v42h-42v-42h42M1900,200h-50v50h50v-50h0Z"/>
  </g>
  <g>
    <rect class="cls-11" x="1902" y="202" width="96" height="46"/>
    <path class="cls-14" d="M1996,204v42h-92v-42h92M2000,200h-100v50h100v-50h0Z"/>
  </g>
  <text class="cls-7" transform="translate(1932 232.06)"><tspan x="0" y="0">...</tspan></text>
  <text class="cls-6" transform="translate(137 235.59)"><tspan x="0" y="0">mem_map</tspan></text>
  <path class="cls-14" d="M1092,508v1184h-284V508h284M1100,500h-300v1200h300V500h0Z"/>
  <g>
    <rect class="cls-8" x="1302" y="502" width="96" height="96"/>
    <path class="cls-14" d="M1396,504v92h-92v-92h92M1400,500h-100v100h100v-100h0Z"/>
  </g>
  <text class="cls-6" transform="translate(1341 560.59)"><tspan x="0" y="0">0</tspan></text>
  <g>
    <rect class="cls-8" x="1302" y="602" width="96" height="96"/>
    <path class="cls-14" d="M1396,604v92h-92v-92h92M1400,600h-100v100h100v-100h0Z"/>
  </g>
  <text class="cls-6" transform="translate(1341 660.59)"><tspan x="0" y="0">1</tspan></text>
  <g>
    <rect class="cls-8" x="1302" y="702" width="96" height="96"/>
    <path class="cls-14" d="M1396,704v92h-92v-92h92M1400,700h-100v100h100v-100h0Z"/>
  </g>
  <text class="cls-6" transform="translate(1341 760.59)"><tspan x="0" y="0">2</tspan></text>
  <g>
    <rect class="cls-8" x="1302" y="802" width="96" height="96"/>
    <path class="cls-14" d="M1396,804v92h-92v-92h92M1400,800h-100v100h100v-100h0Z"/>
  </g>
  <text class="cls-6" transform="translate(1341 860.59)"><tspan x="0" y="0">3</tspan></text>
  <g>
    <rect class="cls-8" x="1302" y="902" width="96" height="96"/>
    <path class="cls-14" d="M1396,904v92h-92v-92h92M1400,900h-100v100h100v-100h0Z"/>
  </g>
  <text class="cls-6" transform="translate(1323 960.59)"><tspan x="0" y="0">...</tspan></text>
  <path class="cls-14" d="M1392,508v484h-84v-484h84M1400,500h-100v500h100v-500h0Z"/>
  <g>
    <path class="cls-1" d="M836.32,1037.74c-24.81,5.25-50.31-9.81-68.37-33.58-18.06-23.77-29.57-55.34-37.98-87.58s-14.06-65.73-22.44-97.98c-23.25-89.53-68.06-168.33-125.67-221.7"/>
    <polygon class="cls-14" points="569.13 585.7 593.45 594.3 582.73 597.82 580.47 608.87 569.13 585.7"/>
  </g>
  <g>
    <path class="cls-1" d="M829.83,1464.52c-61.43-23.91-108.46-94.35-135.65-173.14-27.19-78.79-37.37-166.15-47.25-252.17-14.39-125.27-28.82-251.1-29.27-377.9-.1-27.96.41-56.6-6.27-83.05-4.87-19.29-14.54-37.43-27.31-47.21"/>
    <polygon class="cls-14" points="568.67 523.99 594.4 525.79 585 532.04 585.77 543.29 568.67 523.99"/>
  </g>
  <path class="cls-14" d="M1992,208v34H308v-34h1684M2000,200H300v50h1700v-50h0Z"/>
  <g>
    <path class="cls-1" d="M1070.03,750.22c20.85,11.51,48.02,2.66,65.34-13.68,17.32-16.34,27.41-38.67,38.67-59.65,15.52-28.92,34.27-56.56,58.96-78.18,19.71-17.26,43.52-30.49,69-35.96"/>
    <polygon class="cls-14" points="1321.6 560.16 1295.64 575.38 1300.57 563.17 1292.41 552.85 1321.6 560.16"/>
  </g>
  <g>
    <path class="cls-1" d="M870.56,221.41c-1.75-27.28-18.03-52.36-39.97-68.67-21.94-16.31-49.01-24.58-76.15-27.87-31.98-3.88-66.17-.71-93.15,16.9-21.35,13.92-36.72,38.44-37.62,63.35"/>
    <polygon class="cls-14" points="626.14 224.73 611.94 198.2 623.94 203.6 634.58 195.85 626.14 224.73"/>
  </g>
  <g>
    <path class="cls-1" d="M1373.69,557.98c40.91-7.3,76.61-38.59,89.21-78.19,5.89-18.5,6.79-39.41-1.89-56.78-9-17.99-27.21-29.99-46.43-35.93-19.22-5.94-39.62-6.56-59.73-7.05-138.41-3.32-277.08-2.04-414.99,10.14-13.7,1.21-29.14,1.99-39.4-7.17-9.83-8.79-11.17-23.43-11.84-36.6-1.6-31.64-3.21-63.27-4.81-94.91"/>
    <polygon class="cls-14" points="882.8 231.76 895.58 259 883.88 252.98 872.85 260.16 882.8 231.76"/>
  </g>
  <g>
    <path class="cls-1" d="M614.15,232.28c2.74,17.21,5.03,36.49-5.2,50.59-9.76,13.45-28.54,17.74-44.89,14.76-16.35-2.98-30.91-11.91-45.03-20.66-12.73-7.89-26.16-16.67-35.18-28.22"/>
    <polygon class="cls-14" points="474.75 231.2 498.11 250.17 484.96 249.84 478.15 261.1 474.75 231.2"/>
  </g>
  <g>
    <path class="cls-1" d="M466.68,216.07c6.88-16.19,15.14-32.48,28.77-43.6s33.9-15.79,49.1-6.93c9.72,5.67,16.03,15.99,19.2,26.79,1.32,4.48,2.16,9.06,2.72,13.7"/>
    <polygon class="cls-14" points="567.72 225.76 554.31 198.82 566.15 204.57 577.01 197.14 567.72 225.76"/>
  </g>
  <g>
    <path class="cls-1" d="M1372.21,650.42c42.05,11.99,89.59-2.68,120.44-33.67,30.85-30.98,45.3-76.42,42.1-120.03-3.17-43.17-24.55-86.44-61.75-108.58-26.46-15.75-58.1-19.72-88.76-22.6-170.93-16.07-343.45-8.91-514.29-25.91-33.62-3.35-68.16-7.95-97.46-24.77-23.47-13.47-42.93-36.68-47.92-62.65"/>
    <polygon class="cls-14" points="723.69 232.46 736.85 259.52 725.06 253.66 714.13 260.99 723.69 232.46"/>
  </g>
  <g>
    <path class="cls-1" d="M1373.06,754.97c60.89-.65,121.13-26.3,163.81-69.72,19.94-20.29,36.87-46.97,33.97-75.27-2.96-28.94-26.18-52.21-52.04-65.54-25.85-13.33-54.84-19.1-82.24-28.86-19.04-6.78-37.72-15.74-52.42-29.61-32.22-30.39-39.88-78.24-42.42-122.46-2.15-37.58-2.34-76.87-15.77-111.45"/>
    <polygon class="cls-14" points="1317.49 234.19 1339.48 254.74 1326.38 253.49 1318.8 264.25 1317.49 234.19"/>
  </g>
  <g>
    <path class="cls-1" d="M1318.87,221.05c2.32-23.33-10.54-46.26-28.63-61.18-18.09-14.92-40.8-23-63.46-29.05-44.99-12.02-91.81-17.18-138.33-15.22-35.25,1.48-71.12,7.29-102.04,24.28-25.09,13.79-46.57,35.9-56.51,62.4"/>
    <polygon class="cls-14" points="924.94 221.41 921.36 191.53 930.58 200.93 943.3 197.58 924.94 221.41"/>
  </g>
  <g>
    <path class="cls-1" d="M1366.95,851.14c31.75-11.21,65.33-16.13,97.91-24.61,32.59-8.48,65.24-21.19,89.19-44.86,23.17-22.9,36.21-54.06,45.74-85.22,16.68-54.54,24.23-113.86,7.55-168.39-11.67-38.16-34.47-71.81-51.29-108-24.79-53.34-36.43-112.71-33.8-171.45"/>
    <polygon class="cls-14" points="1523.67 228.88 1533.15 257.44 1522.24 250.08 1510.44 255.91 1523.67 228.88"/>
  </g>
  <g>
    <path class="cls-1" d="M1063.86,1153.71c112.44-2.85,219.99,69.38,331.1,51.91,96.25-15.13,168.96-93.51,227.33-171.52,86.22-115.23,160.01-241.93,198.38-380.64,17.15-62,27.16-126.07,49.04-186.57,25.76-71.23,68.47-142.01,64.52-216.08"/>
    <polygon class="cls-14" points="1932.05 231.17 1946.23 257.72 1934.23 252.31 1923.59 260.05 1932.05 231.17"/>
  </g>
  <g>
    <path class="cls-1" d="M1063,1552.93c103.31,14.98,209.48-23.3,292.17-87.01,82.7-63.71,144.34-150.95,195.13-242.16s91.9-187.49,141.57-279.31c58.54-108.2,128.98-210.25,177.79-323.18,50.76-117.41,76.88-243.64,101.49-369.27"/>
    <polygon class="cls-14" points="1974.94 232.6 1980.64 262.15 1970.78 253.43 1958.32 257.68 1974.94 232.6"/>
  </g>
</svg>